AmstelvarA2-Italic_YSHU150.ufo
<glyph name="I" format="2">
	<unicode hex="0049"/>
	<advance width="712"/>
	<outline>
		<contour>
			<point x="-56" y="0" type="line"/>
			<point x="3" y="302" type="line"/>
			<point x="197" y="327" type="line"/>
			<point x="281" y="754" type="line"/>
			<point x="357" y="1163" type="line"/>
			<point x="145" y="1186" type="line"/>
			<point x="206" y="1500" type="line"/>
			<point x="776" y="1500" type="line"/>
			<point x="715" y="1186" type="line"/>
			<point x="520" y="1163" type="line"/>
			<point x="441" y="754" type="line"/>
			<point x="360" y="328" type="line"/>
			<point x="563" y="302" type="line"/>
			<point x="504" y="0" type="line"/>
		</contour>
	</outline>
	<anchor name="bottom" x="220" y="0"/>
	<anchor name="ogonek" x="356" y="0"/>
	<anchor name="top" x="503" y="1500"/>
	<anchor name="tonos" x="81" y="1500"/>
	<anchor name="yu_dash" x="365" y="795"/>
	<anchor name="liga" x="712" y="0"/>
</glyph>
<glyph name="L" format="2">
	<unicode hex="004C"/>
	<advance width="1104"/>
	<outline>
		<contour>
			<point x="-59" y="0" type="line"/>
			<point x="-1" y="300" type="line"/>
			<point x="186" y="322" type="line"/>
			<point x="270" y="754" type="line"/>
			<point x="346" y="1153" type="line"/>
			<point x="134" y="1187" type="line"/>
			<point x="195" y="1500" type="line"/>
			<point x="767" y="1500" type="line"/>
			<point x="706" y="1187" type="line"/>
			<point x="509" y="1153" type="line"/>
			<point x="430" y="754" type="line"/>
			<point x="311" y="135" type="line"/>
			<point x="342" y="108" type="line"/>
			<point x="798" y="108" type="line"/>
			<point x="957" y="341" type="line"/>
			<point x="1068" y="341" type="line"/>
			<point x="919" y="0" type="line"/>
		</contour>
	</outline>
	<anchor name="bottom" x="535" y="0"/>
	<anchor name="centerright" x="755" y="750"/>
	<anchor name="top" x="878" y="1500"/>
	<anchor name="topright" x="804" y="1001"/>
	<anchor name="center" x="347" y="750"/>
	<anchor name="liga" x="1104" y="0"/>
</glyph>
<glyph name="V" format="2">
	<unicode hex="0056"/>
	<advance width="1201"/>
	<outline>
		<contour>
			<point x="32" y="1186" type="line"/>
			<point x="93" y="1500" type="line"/>
			<point x="563" y="1500" type="line"/>
			<point x="502" y="1186" type="line"/>
			<point x="393" y="1165" type="line"/>
			<point x="413" y="801" type="line"/>
			<point x="438" y="390" type="line"/>
			<point x="446" y="261" type="line"/>
			<point x="456" y="261" type="line"/>
			<point x="527" y="390" type="line"/>
			<point x="759" y="805" type="line"/>
			<point x="961" y="1172" type="line"/>
			<point x="860" y="1186" type="line"/>
			<point x="921" y="1500" type="line"/>
			<point x="1380" y="1500" type="line"/>
			<point x="1319" y="1186" type="line"/>
			<point x="1087" y="1167" type="line"/>
			<point x="855" y="754" type="line"/>
			<point x="428" y="-8" type="line"/>
			<point x="317" y="-8" type="line"/>
			<point x="256" y="740" type="line"/>
			<point x="228" y="1167" type="line"/>
		</contour>
	</outline>
	<anchor name="bottom" x="373" y="0"/>
	<anchor name="top" x="743" y="1500"/>
</glyph>
<glyph name="AE" format="2">
  <advance width="1835"/>
  <unicode hex="00C6"/>
  <anchor x="1324.0" y="1500" name="top"/>
  <outline>
    <contour>
      <point x="439" y="585" type="line"/>
      <point x="507" y="694" type="line"/>
      <point x="742" y="690" type="line"/>
      <point x="723" y="601" type="line"/>
    </contour>
    <contour>
      <point x="742" y="690" type="line"/>
      <point x="1004" y="698" type="line"/>
      <point x="983" y="599" type="line"/>
      <point x="723" y="601" type="line"/>
    </contour>
    <contour>
      <point x="603" y="0" type="line"/>
      <point x="662" y="300" type="line"/>
      <point x="848" y="327" type="line"/>
      <point x="936" y="783" type="line"/>
      <point x="1010" y="1174" type="line"/>
      <point x="616" y="1186" type="line"/>
      <point x="664" y="1500" type="line"/>
      <point x="1842" y="1500" type="line"/>
      <point x="1804" y="1152" type="line"/>
      <point x="1705" y="1152" type="line"/>
      <point x="1698" y="1382" type="line"/>
      <point x="1245" y="1382" type="line"/>
      <point x="1210" y="1362" type="line"/>
      <point x="1095" y="783" type="line"/>
      <point x="976" y="138" type="line"/>
      <point x="1007" y="108" type="line"/>
      <point x="1527" y="108" type="line"/>
      <point x="1618" y="378" type="line"/>
      <point x="1718" y="378" type="line"/>
      <point x="1629" y="0" type="line"/>
    </contour>
    <contour>
      <point x="1016" y="768" type="line"/>
      <point x="1035" y="844" type="line"/>
      <point x="1448" y="854" type="line"/>
      <point x="1504" y="1014" type="line"/>
      <point x="1614" y="1014" type="line"/>
      <point x="1529" y="578" type="line"/>
      <point x="1429" y="578" type="line"/>
      <point x="1436" y="738" type="line"/>
    </contour>
    <contour>
      <point x="1051" y="1432" type="line"/>
      <point x="519" y="623" type="line"/>
      <point x="337" y="318" type="line"/>
      <point x="506" y="300" type="line"/>
      <point x="427" y="0" type="line"/>
      <point x="-56" y="0" type="line"/>
      <point x="23" y="300" type="line"/>
      <point x="207" y="325" type="line"/>
      <point x="422" y="658" type="line"/>
      <point x="928" y="1432" type="line"/>
    </contour>
  </outline>
</glyph>
<glyph name="Gamma" format="2">
	<unicode hex="0393"/>
	<advance width="1033"/>
	<outline>
		<contour>
			<point x="-76" y="0" type="line"/>
			<point x="-18" y="300" type="line"/>
			<point x="169" y="327" type="line"/>
			<point x="253" y="760" type="line"/>
			<point x="328" y="1162" type="line"/>
			<point x="145" y="1186" type="line"/>
			<point x="196" y="1500" type="line"/>
			<point x="1083" y="1500" type="line"/>
			<point x="1039" y="1101" type="line"/>
			<point x="940" y="1101" type="line"/>
			<point x="931" y="1392" type="line"/>
			<point x="558" y="1392" type="line"/>
			<point x="532" y="1372" type="line"/>
			<point x="413" y="760" type="line"/>
			<point x="332" y="322" type="line"/>
			<point x="542" y="300" type="line"/>
			<point x="484" y="0" type="line"/>
		</contour>
	</outline>
	<anchor name="top" x="664" y="1500"/>
	<anchor name="center" x="334" y="760"/>
</glyph>
<glyph name="Lambda" format="2">
	<unicode hex="039B"/>
	<advance width="1367"/>
	<outline>
		<contour>
			<point x="-178" y="0" type="line"/>
			<point x="-120" y="300" type="line"/>
			<point x="147" y="325" type="line"/>
			<point x="359" y="660" type="line"/>
			<point x="907" y="1531" type="line"/>
			<point x="1027" y="1513" type="line"/>
			<point x="1068" y="655" type="line"/>
			<point x="1088" y="320" type="line"/>
			<point x="1306" y="300" type="line"/>
			<point x="1248" y="0" type="line"/>
			<point x="745" y="0" type="line"/>
			<point x="803" y="300" type="line"/>
			<point x="923" y="316" type="line"/>
			<point x="912" y="648" type="line"/>
			<point x="891" y="1166" type="line"/>
			<point x="886" y="1287" type="line"/>
			<point x="876" y="1287" type="line"/>
			<point x="799" y="1167" type="line"/>
			<point x="457" y="625" type="line"/>
			<point x="274" y="319" type="line"/>
			<point x="369" y="300" type="line"/>
			<point x="311" y="0" type="line"/>
		</contour>
	</outline>
</glyph>
<glyph name="Pi" format="2">
	<unicode hex="03A0"/>
	<advance width="1551"/>
	<outline>
		<contour>
			<point x="-66" y="0" type="line"/>
			<point x="-8" y="300" type="line"/>
			<point x="180" y="320" type="line"/>
			<point x="279" y="806" type="line"/>
			<point x="341" y="1162" type="line"/>
			<point x="145" y="1185" type="line"/>
			<point x="196" y="1500" type="line"/>
			<point x="1617" y="1500" type="line"/>
			<point x="1556" y="1185" type="line"/>
			<point x="1373" y="1162" type="line"/>
			<point x="1295" y="771" type="line"/>
			<point x="1212" y="320" type="line"/>
			<point x="1403" y="300" type="line"/>
			<point x="1355" y="0" type="line"/>
			<point x="799" y="0" type="line"/>
			<point x="857" y="300" type="line"/>
			<point x="1045" y="320" type="line"/>
			<point x="1139" y="788" type="line"/>
			<point x="1243" y="1362" type="line"/>
			<point x="1213" y="1382" type="line"/>
			<point x="582" y="1382" type="line"/>
			<point x="547" y="1362" type="line"/>
			<point x="435" y="790" type="line"/>
			<point x="347" y="320" type="line"/>
			<point x="539" y="300" type="line"/>
			<point x="491" y="0" type="line"/>
		</contour>
	</outline>
</glyph>
<glyph name="Phi" format="2">
	<unicode hex="03A6"/>
	<advance width="1757"/>
	<outline>
		<contour>
			<point x="425" y="-175" type="line"/>
			<point x="489" y="147" type="line"/>
			<point x="689" y="172" type="line"/>
			<point x="805" y="754" type="line"/>
			<point x="911" y="1308" type="line"/>
			<point x="704" y="1331" type="line"/>
			<point x="764" y="1670" type="line"/>
			<point x="1334" y="1670" type="line"/>
			<point x="1264" y="1331" type="line"/>
			<point x="1065" y="1308" type="line"/>
			<point x="955" y="754" type="line"/>
			<point x="843" y="173" type="line"/>
			<point x="1049" y="147" type="line"/>
			<point x="985" y="-175" type="line"/>
		</contour>
		<contour>
			<point x="537" y="225" type="qcurve" smooth="yes"/>
			<point x="250" y="272"/>
			<point x="39" y="590"/>
			<point x="89" y="804" type="qcurve" smooth="yes"/>
			<point x="156" y="1092"/>
			<point x="810" y="1333"/>
			<point x="1224" y="1275" type="qcurve"/>
			<point x="1509" y="1228"/>
			<point x="1722" y="910"/>
			<point x="1671" y="696" type="qcurve" smooth="yes"/>
			<point x="1603" y="408"/>
			<point x="931" y="161"/>
		</contour>
		<contour>
			<point x="589" y="342" type="qcurve" smooth="yes"/>
			<point x="915" y="293"/>
			<point x="1445" y="481"/>
			<point x="1498" y="688" type="qcurve" smooth="yes"/>
			<point x="1540" y="851"/>
			<point x="1415" y="1119"/>
			<point x="1172" y="1157" type="qcurve"/>
			<point x="833" y="1211"/>
			<point x="315" y="1019"/>
			<point x="262" y="813" type="qcurve" smooth="yes"/>
			<point x="220" y="648"/>
			<point x="346" y="379"/>
		</contour>
	</outline>
</glyph>
<glyph name="Psi" format="2">
  <advance width="1701"/>
  <unicode hex="03A8"/>
  <outline>
    <contour>
      <point x="489" y="0" type="line"/>
      <point x="546" y="302" type="line"/>
      <point x="701" y="327" type="line"/>
      <point x="786" y="754" type="line"/>
      <point x="862" y="1163" type="line"/>
      <point x="700" y="1186" type="line"/>
      <point x="751" y="1500" type="line"/>
      <point x="1241" y="1500" type="line"/>
      <point x="1180" y="1186" type="line"/>
      <point x="1026" y="1163" type="line"/>
      <point x="946" y="754" type="line"/>
      <point x="865" y="328" type="line"/>
      <point x="1026" y="302" type="line"/>
      <point x="969" y="0" type="line"/>
    </contour>
    <contour>
      <point x="809" y="461" type="qcurve" smooth="yes"/>
      <point x="509" y="462"/>
      <point x="275" y="686"/>
      <point x="308" y="1008" type="qcurve" smooth="yes"/>
      <point x="325" y="1162" type="line"/>
      <point x="152" y="1186" type="line"/>
      <point x="196" y="1500" type="line"/>
      <point x="497" y="1500" type="line"/>
      <point x="523" y="1478" type="line"/>
      <point x="473" y="1014" type="line" smooth="yes"/>
      <point x="442" y="725"/>
      <point x="595" y="557"/>
      <point x="823" y="557" type="qcurve" smooth="yes"/>
      <point x="1050" y="557"/>
      <point x="1276" y="724"/>
      <point x="1358" y="1014" type="qcurve" smooth="yes"/>
      <point x="1488" y="1478" type="line"/>
      <point x="1528" y="1500" type="line"/>
      <point x="1789" y="1500" type="line"/>
      <point x="1741" y="1192" type="line"/>
      <point x="1565" y="1162" type="line"/>
      <point x="1523" y="1008" type="line" smooth="yes"/>
      <point x="1440" y="704"/>
      <point x="1161" y="460"/>
    </contour>
  </outline>
</glyph>
<glyph name="Kaisymbol" format="2">
  <advance width="1302"/>
  <unicode hex="03CF"/>
  <outline>
    <contour>
      <point x="-66" y="0" type="line"/>
      <point x="-8" y="300" type="line"/>
      <point x="178" y="325" type="line"/>
      <point x="262" y="754" type="line"/>
      <point x="338" y="1162" type="line"/>
      <point x="135" y="1186" type="line"/>
      <point x="196" y="1500" type="line"/>
      <point x="738" y="1500" type="line"/>
      <point x="677" y="1186" type="line"/>
      <point x="503" y="1162" type="line"/>
      <point x="422" y="754" type="line"/>
      <point x="346" y="324" type="line"/>
      <point x="544" y="300" type="line"/>
      <point x="486" y="0" type="line"/>
    </contour>
    <contour>
      <point x="303" y="540" type="line"/>
      <point x="331" y="693" type="line"/>
      <point x="813" y="1148" type="line"/>
      <point x="877" y="1208" type="line"/>
      <point x="934" y="1500" type="line"/>
      <point x="1354" y="1500" type="line"/>
      <point x="1293" y="1186" type="line"/>
      <point x="963" y="1148" type="line"/>
    </contour>
    <contour>
      <point x="520" y="-510" type="qcurve" smooth="yes"/>
      <point x="349" y="-510"/>
      <point x="84" y="-351"/>
      <point x="20" y="-194" type="qcurve"/>
      <point x="110" y="-134" type="line"/>
      <point x="157" y="-220"/>
      <point x="368" y="-363"/>
      <point x="550" y="-363" type="qcurve" smooth="yes"/>
      <point x="778" y="-363"/>
      <point x="1000" y="-123"/>
      <point x="1041" y="0" type="qcurve"/>
      <point x="725" y="0" type="line"/>
      <point x="783" y="300" type="line"/>
      <point x="799" y="324" type="line"/>
      <point x="589" y="874" type="line"/>
      <point x="717" y="993" type="line"/>
      <point x="971" y="325" type="line"/>
      <point x="1249" y="300" type="line"/>
      <point x="1186" y="-131"/>
      <point x="804" y="-510"/>
    </contour>
  </outline>
</glyph>
<glyph name="Dzhe" format="2">
  <advance width="1566"/>
  <unicode hex="040F"/>
  <outline>
    <contour>
      <point x="745" y="0" type="line"/>
      <point x="640" y="-338" type="line"/>
      <point x="538" y="-338" type="line"/>
      <point x="565" y="0" type="line"/>
      <point x="-66" y="0" type="line"/>
      <point x="-8" y="300" type="line"/>
      <point x="174" y="320" type="line"/>
      <point x="256" y="729" type="line"/>
      <point x="336" y="1162" type="line"/>
      <point x="145" y="1185" type="line"/>
      <point x="196" y="1500" type="line"/>
      <point x="752" y="1500" type="line"/>
      <point x="691" y="1185" type="line"/>
      <point x="502" y="1162" type="line"/>
      <point x="412" y="712" type="line"/>
      <point x="306" y="128" type="line"/>
      <point x="330" y="108" type="line"/>
      <point x="982" y="108" type="line"/>
      <point x="1017" y="128" type="line"/>
      <point x="1131" y="710" type="line"/>
      <point x="1215" y="1162" type="line"/>
      <point x="1024" y="1185" type="line"/>
      <point x="1075" y="1500" type="line"/>
      <point x="1632" y="1500" type="line"/>
      <point x="1571" y="1185" type="line"/>
      <point x="1382" y="1162" type="line"/>
      <point x="1287" y="694" type="line"/>
      <point x="1221" y="320" type="line"/>
      <point x="1430" y="300" type="line"/>
      <point x="1376" y="0" type="line"/>
    </contour>
  </outline>
</glyph>
<glyph name="Zhe" format="2">
	<unicode hex="0416"/>
	<advance width="1962"/>
	<outline>
		<contour>
			<point x="584" y="0" type="line"/>
			<point x="632" y="300" type="line"/>
			<point x="816" y="325" type="line"/>
			<point x="900" y="754" type="line"/>
			<point x="976" y="1162" type="line"/>
			<point x="794" y="1186" type="line"/>
			<point x="845" y="1500" type="line"/>
			<point x="1376" y="1500" type="line"/>
			<point x="1325" y="1186" type="line"/>
			<point x="1143" y="1162" type="line"/>
			<point x="1060" y="754" type="line"/>
			<point x="988" y="325" type="line"/>
			<point x="1172" y="300" type="line"/>
			<point x="1124" y="0" type="line"/>
		</contour>
		<contour>
			<point x="979" y="738" type="line"/>
			<point x="1002" y="855" type="line"/>
			<point x="1239" y="854" type="line"/>
			<point x="1595" y="1148" type="line"/>
			<point x="1491" y="1186" type="line"/>
			<point x="1542" y="1500" type="line"/>
			<point x="1992" y="1500" type="line"/>
			<point x="1941" y="1186" type="line"/>
			<point x="1780" y="1148" type="line"/>
			<point x="1316" y="781" type="line"/>
			<point x="1248" y="739" type="line"/>
		</contour>
		<contour>
			<point x="1205" y="752" type="line"/>
			<point x="1321" y="865" type="line"/>
			<point x="1734" y="325" type="line"/>
			<point x="1888" y="300" type="line"/>
			<point x="1840" y="0" type="line"/>
			<point x="1350" y="0" type="line"/>
			<point x="1398" y="300" type="line"/>
			<point x="1539" y="325" type="line"/>
		</contour>
		<contour>
			<point x="979" y="738" type="line"/>
			<point x="711" y="739" type="line"/>
			<point x="664" y="781" type="line"/>
			<point x="331" y="1148" type="line"/>
			<point x="185" y="1186" type="line"/>
			<point x="237" y="1500" type="line"/>
			<point x="669" y="1500" type="line"/>
			<point x="617" y="1186" type="line"/>
			<point x="498" y="1148" type="line"/>
			<point x="764" y="854" type="line"/>
			<point x="1002" y="855" type="line"/>
		</contour>
		<contour>
			<point x="759" y="752" type="line"/>
			<point x="276" y="325" type="line"/>
			<point x="407" y="300" type="line"/>
			<point x="358" y="0" type="line"/>
			<point x="-140" y="0" type="line"/>
			<point x="-91" y="300" type="line"/>
			<point x="73" y="325" type="line"/>
			<point x="678" y="865" type="line"/>
		</contour>
	</outline>
	<anchor name="bottom" x="833" y="0"/>
	<anchor name="top" x="1124" y="1500"/>
	<anchor name="cy_descender" x="1859" y="100"/>
</glyph>
<glyph name="Icyr" format="2">
  <advance width="1591"/>
  <unicode hex="0418"/>
  <anchor x="653" y="0" name="bottom"/>
  <anchor x="940.0" y="1500" name="top"/>
  <outline>
    <contour>
      <point x="228" y="152" type="line"/>
      <point x="263" y="328" type="line"/>
      <point x="761" y="778" type="line"/>
      <point x="1360" y="1336" type="line"/>
      <point x="1331" y="1159" type="line"/>
      <point x="830" y="706" type="line"/>
    </contour>
    <contour>
      <point x="-66" y="0" type="line"/>
      <point x="-8" y="300" type="line"/>
      <point x="179" y="320" type="line"/>
      <point x="279" y="806" type="line"/>
      <point x="343" y="1162" type="line"/>
      <point x="145" y="1185" type="line"/>
      <point x="196" y="1500" type="line"/>
      <point x="753" y="1500" type="line"/>
      <point x="692" y="1185" type="line"/>
      <point x="508" y="1162" type="line"/>
      <point x="435" y="790" type="line"/>
      <point x="347" y="320" type="line"/>
      <point x="539" y="300" type="line"/>
      <point x="491" y="0" type="line"/>
    </contour>
    <contour>
      <point x="839" y="0" type="line"/>
      <point x="897" y="300" type="line"/>
      <point x="1085" y="320" type="line"/>
      <point x="1179" y="788" type="line"/>
      <point x="1247" y="1162" type="line"/>
      <point x="1050" y="1185" type="line"/>
      <point x="1101" y="1500" type="line"/>
      <point x="1657" y="1500" type="line"/>
      <point x="1596" y="1185" type="line"/>
      <point x="1413" y="1162" type="line"/>
      <point x="1335" y="771" type="line"/>
      <point x="1251" y="320" type="line"/>
      <point x="1443" y="300" type="line"/>
      <point x="1395" y="0" type="line"/>
    </contour>
  </outline>
</glyph>
<glyph name="Ka" format="2">
	<unicode hex="041A"/>
	<advance width="1302"/>
	<outline>
		<contour>
			<point x="-66" y="0" type="line"/>
			<point x="-18" y="300" type="line"/>
			<point x="178" y="325" type="line"/>
			<point x="262" y="754" type="line"/>
			<point x="338" y="1162" type="line"/>
			<point x="145" y="1186" type="line"/>
			<point x="196" y="1500" type="line"/>
			<point x="738" y="1500" type="line"/>
			<point x="687" y="1186" type="line"/>
			<point x="505" y="1162" type="line"/>
			<point x="421" y="754" type="line"/>
			<point x="350" y="325" type="line"/>
			<point x="534" y="300" type="line"/>
			<point x="486" y="0" type="line"/>
		</contour>
		<contour>
			<point x="339" y="738" type="line"/>
			<point x="360" y="855" type="line"/>
			<point x="601" y="854" type="line"/>
			<point x="957" y="1148" type="line"/>
			<point x="853" y="1186" type="line"/>
			<point x="904" y="1500" type="line"/>
			<point x="1354" y="1500" type="line"/>
			<point x="1303" y="1186" type="line"/>
			<point x="1142" y="1148" type="line"/>
			<point x="678" y="781" type="line"/>
			<point x="610" y="739" type="line"/>
		</contour>
		<contour>
			<point x="567" y="752" type="line"/>
			<point x="683" y="865" type="line"/>
			<point x="1096" y="325" type="line"/>
			<point x="1250" y="300" type="line"/>
			<point x="1202" y="0" type="line"/>
			<point x="700" y="0" type="line"/>
			<point x="748" y="300" type="line"/>
			<point x="886" y="325" type="line"/>
		</contour>
	</outline>
	<anchor name="bottom" x="552" y="0"/>
	<anchor name="top" x="770" y="1500"/>
	<anchor name="cy_descender" x="1221" y="100"/>
</glyph>
<glyph name="Tse" format="2">
  <advance width="1566"/>
  <unicode hex="0426"/>
  <outline>
    <contour>
      <point x="1209" y="0" type="line"/>
      <point x="-66" y="0" type="line"/>
      <point x="-8" y="300" type="line"/>
      <point x="180" y="320" type="line"/>
      <point x="264" y="729" type="line"/>
      <point x="341" y="1162" type="line"/>
      <point x="145" y="1185" type="line"/>
      <point x="196" y="1500" type="line"/>
      <point x="753" y="1500" type="line"/>
      <point x="692" y="1185" type="line"/>
      <point x="508" y="1162" type="line"/>
      <point x="420" y="712" type="line"/>
      <point x="311" y="128" type="line"/>
      <point x="355" y="108" type="line"/>
      <point x="982" y="108" type="line"/>
      <point x="1017" y="128" type="line"/>
      <point x="1135" y="710" type="line"/>
      <point x="1219" y="1162" type="line"/>
      <point x="1028" y="1185" type="line"/>
      <point x="1079" y="1500" type="line"/>
      <point x="1628" y="1500" type="line"/>
      <point x="1567" y="1185" type="line"/>
      <point x="1384" y="1162" type="line"/>
      <point x="1294" y="710" type="line"/>
      <point x="1183" y="108" type="line"/>
      <point x="1391" y="108" type="line"/>
      <point x="1315" y="-338" type="line"/>
      <point x="1213" y="-338" type="line"/>
    </contour>
  </outline>
</glyph>
<glyph name="Sha" format="2">
	<unicode hex="0428"/>
	<advance width="2141"/>
	<outline>
		<contour>
			<point x="1072" y="108" type="line"/>
			<point x="1561" y="108" type="line"/>
			<point x="1596" y="128" type="line"/>
			<point x="1729" y="788" type="line"/>
			<point x="1797" y="1162" type="line"/>
			<point x="1609" y="1185" type="line"/>
			<point x="1660" y="1500" type="line"/>
			<point x="2207" y="1500" type="line"/>
			<point x="2146" y="1185" type="line"/>
			<point x="1963" y="1162" type="line"/>
			<point x="1885" y="771" type="line"/>
			<point x="1802" y="320" type="line"/>
			<point x="1993" y="300" type="line"/>
			<point x="1945" y="0" type="line"/>
			<point x="-66" y="0" type="line"/>
			<point x="-8" y="300" type="line"/>
			<point x="179" y="320" type="line"/>
			<point x="279" y="806" type="line"/>
			<point x="342" y="1162" type="line"/>
			<point x="145" y="1185" type="line"/>
			<point x="196" y="1500" type="line"/>
			<point x="753" y="1500" type="line"/>
			<point x="692" y="1185" type="line"/>
			<point x="508" y="1162" type="line"/>
			<point x="435" y="790" type="line"/>
			<point x="311" y="128" type="line"/>
			<point x="355" y="108" type="line"/>
			<point x="821" y="108" type="line"/>
			<point x="869" y="128" type="line"/>
			<point x="1006" y="806" type="line"/>
			<point x="1069" y="1162" type="line"/>
			<point x="882" y="1185" type="line"/>
			<point x="933" y="1500" type="line"/>
			<point x="1480" y="1500" type="line"/>
			<point x="1419" y="1185" type="line"/>
			<point x="1235" y="1162" type="line"/>
			<point x="1162" y="790" type="line"/>
			<point x="1038" y="129" type="line"/>
		</contour>
	</outline>
	<anchor name="cy_descender" x="1964" y="100"/>
</glyph>
<glyph name="Ya" format="2">
  <advance width="1340"/>
  <unicode hex="042F"/>
  <anchor x="630.0" y="0" name="bottom"/>
  <anchor x="803.0" y="1500" name="top"/>
  <outline>
    <contour>
      <point x="513" y="719" type="line"/>
      <point x="663" y="673" type="line"/>
      <point x="135" y="20" type="line"/>
      <point x="103" y="0" type="line"/>
      <point x="-140" y="0" type="line"/>
      <point x="-90" y="300" type="line"/>
      <point x="68" y="301"/>
      <point x="230" y="374"/>
      <point x="346" y="515" type="qcurve" smooth="yes"/>
    </contour>
    <contour>
      <point x="977" y="629" type="line"/>
      <point x="607" y="629" type="line"/>
      <point x="595" y="637" type="line"/>
      <point x="397" y="665"/>
      <point x="229" y="916"/>
      <point x="256" y="1097" type="qcurve" smooth="yes"/>
      <point x="283" y="1280"/>
      <point x="593" y="1500"/>
      <point x="803" y="1500" type="qcurve" smooth="yes"/>
      <point x="1406" y="1500" type="line"/>
      <point x="1345" y="1185" type="line"/>
      <point x="1162" y="1162" type="line"/>
      <point x="1083" y="771" type="line"/>
      <point x="1000" y="320" type="line"/>
      <point x="1192" y="300" type="line"/>
      <point x="1143" y="0" type="line"/>
      <point x="587" y="0" type="line"/>
      <point x="646" y="300" type="line"/>
      <point x="834" y="320" type="line"/>
      <point x="925" y="771" type="line"/>
      <point x="1031" y="1360" type="line"/>
      <point x="1001" y="1380" type="line"/>
      <point x="829" y="1380" type="line" smooth="yes"/>
      <point x="662" y="1380"/>
      <point x="459" y="1248"/>
      <point x="436" y="1090" type="qcurve" smooth="yes"/>
      <point x="413" y="934"/>
      <point x="553" y="742"/>
      <point x="710" y="742" type="qcurve" smooth="yes"/>
      <point x="998" y="742" type="line"/>
    </contour>
  </outline>
</glyph>
<glyph name="Gheup" format="2">
  <advance width="1039"/>
  <unicode hex="0490"/>
  <outline>
    <contour>
      <point x="1077" y="1382" type="line"/>
      <point x="556" y="1382" type="line"/>
      <point x="530" y="1362" type="line"/>
      <point x="413" y="760" type="line"/>
      <point x="331" y="322" type="line"/>
      <point x="542" y="300" type="line"/>
      <point x="484" y="0" type="line"/>
      <point x="-76" y="0" type="line"/>
      <point x="-18" y="300" type="line"/>
      <point x="169" y="327" type="line"/>
      <point x="253" y="760" type="line"/>
      <point x="328" y="1162" type="line"/>
      <point x="145" y="1186" type="line"/>
      <point x="196" y="1500" type="line"/>
      <point x="931" y="1500" type="line"/>
      <point x="1071" y="1828" type="line"/>
      <point x="1173" y="1828" type="line"/>
    </contour>
  </outline>
</glyph>
<glyph name="Kaverticalstrokecyr" format="2">
	<unicode hex="049C"/>
	<advance width="1574"/>
	<outline>
		<contour>
			<point x="826" y="1185" type="line"/>
			<point x="660" y="329" type="line"/>
			<point x="519" y="329" type="line"/>
			<point x="685" y="1185" type="line"/>
		</contour>
		<contour>
			<point x="-66" y="0" type="line"/>
			<point x="-18" y="300" type="line"/>
			<point x="178" y="325" type="line"/>
			<point x="262" y="754" type="line"/>
			<point x="338" y="1162" type="line"/>
			<point x="145" y="1186" type="line"/>
			<point x="196" y="1500" type="line"/>
			<point x="738" y="1500" type="line"/>
			<point x="687" y="1186" type="line"/>
			<point x="503" y="1162" type="line"/>
			<point x="422" y="754" type="line"/>
			<point x="347" y="325" type="line"/>
			<point x="534" y="300" type="line"/>
			<point x="486" y="0" type="line"/>
		</contour>
		<contour>
			<point x="669" y="739" type="line"/>
			<point x="690" y="856" type="line"/>
			<point x="901" y="854" type="line"/>
			<point x="1237" y="1148" type="line"/>
			<point x="1133" y="1186" type="line"/>
			<point x="1184" y="1500" type="line"/>
			<point x="1604" y="1500" type="line"/>
			<point x="1553" y="1186" type="line"/>
			<point x="1402" y="1148" type="line"/>
			<point x="968" y="781" type="line"/>
			<point x="900" y="739" type="line"/>
		</contour>
		<contour>
			<point x="857" y="752" type="line"/>
			<point x="973" y="865" type="line"/>
			<point x="1346" y="325" type="line"/>
			<point x="1500" y="300" type="line"/>
			<point x="1452" y="0" type="line"/>
			<point x="962" y="0" type="line"/>
			<point x="1010" y="300" type="line"/>
			<point x="1151" y="325" type="line"/>
		</contour>
	</outline>
</glyph>
<glyph name="Kabashkircyr" format="2">
  <advance width="1550"/>
  <unicode hex="04A0"/>
  <outline>
    <contour>
      <point x="565" y="739" type="line"/>
      <point x="586" y="854" type="line"/>
      <point x="833" y="854" type="line"/>
      <point x="1213" y="1148" type="line"/>
      <point x="1109" y="1186" type="line"/>
      <point x="1160" y="1500" type="line"/>
      <point x="1580" y="1500" type="line"/>
      <point x="1529" y="1186" type="line"/>
      <point x="1388" y="1148" type="line"/>
      <point x="904" y="781" type="line"/>
      <point x="836" y="739" type="line"/>
    </contour>
    <contour>
      <point x="793" y="752" type="line"/>
      <point x="909" y="865" type="line"/>
      <point x="1322" y="325" type="line"/>
      <point x="1476" y="300" type="line"/>
      <point x="1428" y="0" type="line"/>
      <point x="930" y="0" type="line"/>
      <point x="978" y="300" type="line"/>
      <point x="1119" y="325" type="line"/>
    </contour>
    <contour>
      <point x="604" y="1382" type="line"/>
      <point x="293" y="1382" type="line"/>
      <point x="201" y="1099" type="line"/>
      <point x="101" y="1099" type="line"/>
      <point x="184" y="1500" type="line"/>
      <point x="964" y="1500" type="line"/>
      <point x="913" y="1186" type="line"/>
      <point x="729" y="1162" type="line"/>
      <point x="647" y="754" type="line"/>
      <point x="572" y="325" type="line"/>
      <point x="760" y="300" type="line"/>
      <point x="712" y="0" type="line"/>
      <point x="160" y="0" type="line"/>
      <point x="208" y="300" type="line"/>
      <point x="404" y="325" type="line"/>
      <point x="488" y="754" type="line"/>
    </contour>
  </outline>
</glyph>
<glyph name="Cheverticalstroke-cy" format="2">
	<unicode hex="04B8"/>
	<advance width="1536"/>
	<outline>
		<contour>
			<point x="450" y="1074" type="line" smooth="yes"/>
			<point x="410" y="869"/>
			<point x="575" y="706"/>
			<point x="784" y="706" type="qcurve" smooth="yes"/>
			<point x="896.7303102625" y="706"/>
			<point x="1094.2306525661" y="743.0790198606"/>
			<point x="1202" y="780" type="qcurve"/>
			<point x="1181" y="671" type="line"/>
			<point x="1070.2154164272" y="631.0776275413"/>
			<point x="872.6776315789" y="589"/>
			<point x="726" y="589" type="qcurve" smooth="yes"/>
			<point x="476" y="589"/>
			<point x="242" y="822"/>
			<point x="287" y="1081" type="qcurve" smooth="yes"/>
			<point x="301" y="1162" type="line"/>
			<point x="105" y="1185" type="line"/>
			<point x="156" y="1500" type="line"/>
			<point x="713" y="1500" type="line"/>
			<point x="652" y="1185" type="line"/>
			<point x="467" y="1162" type="line"/>
		</contour>
		<contour>
			<point x="774" y="0" type="line"/>
			<point x="832" y="300" type="line"/>
			<point x="1030" y="320" type="line"/>
			<point x="1124" y="788" type="line"/>
			<point x="1192" y="1162" type="line"/>
			<point x="995" y="1185" type="line"/>
			<point x="1046" y="1500" type="line"/>
			<point x="1602" y="1500" type="line"/>
			<point x="1541" y="1185" type="line"/>
			<point x="1358" y="1162" type="line"/>
			<point x="1280" y="771" type="line"/>
			<point x="1196" y="320" type="line"/>
			<point x="1388" y="300" type="line"/>
			<point x="1340" y="0" type="line"/>
		</contour>
		<contour>
			<point x="902" y="1145" type="line"/>
			<point x="735" y="289" type="line"/>
			<point x="595" y="289" type="line"/>
			<point x="762" y="1145" type="line"/>
		</contour>
	</outline>
</glyph>
<glyph name="Shha" format="2">
	<unicode hex="04BA"/>
	<advance width="1559"/>
	<outline>
		<contour>
			<point x="1086" y="426" type="line" smooth="yes"/>
			<point x="1127" y="631"/>
			<point x="961" y="794"/>
			<point x="752" y="794" type="qcurve" smooth="yes"/>
			<point x="641" y="794"/>
			<point x="448" y="756"/>
			<point x="342" y="720" type="qcurve"/>
			<point x="363" y="829" type="line"/>
			<point x="472" y="868"/>
			<point x="666" y="911"/>
			<point x="810" y="911" type="qcurve" smooth="yes"/>
			<point x="1060" y="911"/>
			<point x="1296" y="677"/>
			<point x="1249" y="419" type="qcurve" smooth="yes"/>
			<point x="1231" y="320" type="line"/>
			<point x="1428" y="300" type="line"/>
			<point x="1380" y="0" type="line"/>
			<point x="824" y="0" type="line"/>
			<point x="882" y="300" type="line"/>
			<point x="1065" y="320" type="line"/>
		</contour>
		<contour>
			<point x="-66" y="0" type="line"/>
			<point x="-8" y="300" type="line"/>
			<point x="180" y="320" type="line"/>
			<point x="279" y="806" type="line"/>
			<point x="342" y="1162" type="line"/>
			<point x="145" y="1185" type="line"/>
			<point x="196" y="1500" type="line"/>
			<point x="753" y="1500" type="line"/>
			<point x="692" y="1185" type="line"/>
			<point x="508" y="1162" type="line"/>
			<point x="435" y="790" type="line"/>
			<point x="347" y="320" type="line"/>
			<point x="539" y="300" type="line"/>
			<point x="491" y="0" type="line"/>
		</contour>
	</outline>
</glyph>
<glyph name="franc" format="2">
  <advance width="1060"/>
  <unicode hex="20A3"/>
  <outline>
    <contour>
      <point x="64" y="414" type="line"/>
      <point x="93" y="534" type="line"/>
      <point x="777" y="534" type="line"/>
      <point x="748" y="414" type="line"/>
    </contour>
    <contour>
      <point x="-16" y="0" type="line"/>
      <point x="48" y="318" type="line"/>
      <point x="235" y="345" type="line"/>
      <point x="313" y="760" type="line"/>
      <point x="393" y="1173" type="line"/>
      <point x="222" y="1197" type="line"/>
      <point x="256" y="1500" type="line"/>
      <point x="1166" y="1500" type="line"/>
      <point x="1099" y="1174" type="line"/>
      <point x="999" y="1174" type="line"/>
      <point x="1012" y="1382" type="line"/>
      <point x="628" y="1392" type="line"/>
      <point x="592" y="1372" type="line"/>
      <point x="473" y="760" type="line"/>
      <point x="398" y="340" type="line"/>
      <point x="598" y="318" type="line"/>
      <point x="534" y="0" type="line"/>
    </contour>
    <contour>
      <point x="398" y="779" type="line"/>
      <point x="417" y="881" type="line"/>
      <point x="808" y="888" type="line"/>
      <point x="865" y="1051" type="line"/>
      <point x="965" y="1051" type="line"/>
      <point x="874" y="585" type="line"/>
      <point x="774" y="585" type="line"/>
      <point x="785" y="772" type="line"/>
    </contour>
  </outline>
</glyph>
<glyph name="Zhe.bgr" format="2">
  <advance width="1944"/>
  <outline>
    <contour>
      <point x="566" y="0" type="line"/>
      <point x="614" y="300" type="line"/>
      <point x="798" y="325" type="line"/>
      <point x="882" y="754" type="line"/>
      <point x="958" y="1162" type="line"/>
      <point x="776" y="1186" type="line"/>
      <point x="827" y="1500" type="line"/>
      <point x="1358" y="1500" type="line"/>
      <point x="1307" y="1186" type="line"/>
      <point x="1125" y="1162" type="line"/>
      <point x="1042" y="754" type="line"/>
      <point x="966" y="325" type="line"/>
      <point x="1154" y="300" type="line"/>
      <point x="1106" y="0" type="line"/>
    </contour>
    <contour>
      <point x="1228" y="838" type="line"/>
      <point x="1368" y="936" type="line"/>
      <point x="1706" y="325" type="line"/>
      <point x="1860" y="300" type="line"/>
      <point x="1812" y="0" type="line"/>
      <point x="1325" y="0" type="line"/>
      <point x="1373" y="300" type="line"/>
      <point x="1514" y="325" type="line"/>
    </contour>
    <contour>
      <point x="347" y="0" type="line"/>
      <point x="-140" y="0" type="line"/>
      <point x="-88" y="300" type="line"/>
      <point x="66" y="325" type="line"/>
      <point x="620" y="931" type="line"/>
      <point x="722" y="823" type="line"/>
      <point x="268" y="325" type="line"/>
      <point x="399" y="300" type="line"/>
    </contour>
    <contour>
      <point x="923" y="543" type="line"/>
      <point x="310" y="1148" type="line"/>
      <point x="150" y="1186" type="line"/>
      <point x="201" y="1500" type="line"/>
      <point x="651" y="1500" type="line"/>
      <point x="600" y="1186" type="line"/>
      <point x="477" y="1148" type="line"/>
      <point x="949" y="691" type="line"/>
      <point x="1587" y="1148" type="line"/>
      <point x="1483" y="1186" type="line"/>
      <point x="1534" y="1500" type="line"/>
      <point x="1974" y="1500" type="line"/>
      <point x="1923" y="1186" type="line"/>
      <point x="1762" y="1148" type="line"/>
    </contour>
  </outline>
</glyph>
